<?xml version="1.0" encoding="UTF-8" standalone="no"?>
<!-- Generator: Adobe Illustrator 15.0.1, SVG Export Plug-In . SVG Version: 6.00 Build 0)  -->

<svg
   xmlns:dc="http://purl.org/dc/elements/1.1/"
   xmlns:cc="http://creativecommons.org/ns#"
   xmlns:rdf="http://www.w3.org/1999/02/22-rdf-syntax-ns#"
   xmlns:svg="http://www.w3.org/2000/svg"
   xmlns="http://www.w3.org/2000/svg"
   xmlns:sodipodi="http://sodipodi.sourceforge.net/DTD/sodipodi-0.dtd"
   xmlns:inkscape="http://www.inkscape.org/namespaces/inkscape"
   version="1.1"
   id="svg2"
   sodipodi:version="0.32"
   inkscape:version="0.91 r13725"
   sodipodi:docname="linkedin.svg"
   inkscape:output_extension="org.inkscape.output.svg.inkscape"
   x="0px"
   y="0px"
   width="256px"
   height="256px"
   viewBox="0 0 256 256"
   enable-background="new 0 0 256 256"
   xml:space="preserve"><metadata
     id="metadata18"><rdf:RDF><cc:Work
         rdf:about=""><dc:format>image/svg+xml</dc:format><dc:type
           rdf:resource="http://purl.org/dc/dcmitype/StillImage" /></cc:Work></rdf:RDF></metadata><defs
     id="defs16" /><sodipodi:namedview
     showgrid="false"
     inkscape:window-maximized="1"
     pagecolor="#ffffff"
     bordercolor="#666666"
     id="base"
     borderopacity="1.0"
     inkscape:cx="-75.242633"
     inkscape:pageopacity="0.0"
     inkscape:pageshadow="2"
     inkscape:zoom="0.98994948"
     inkscape:cy="147.97007"
     inkscape:document-units="px"
     inkscape:current-layer="layer1"
     inkscape:window-width="1920"
     inkscape:window-height="1001"
     inkscape:window-x="-9"
     inkscape:window-y="41" /><g
     id="layer1"
     transform="translate(-373.642,-318.344)"
     inkscape:label="Layer 1"
     inkscape:groupmode="layer"><path
       id="rect1942"
       inkscape:export-filename="C:\Documents and Settings\Molumen\Desktop\path3511111.png"
       inkscape:export-xdpi="7.7063322"
       inkscape:export-ydpi="7.7063322"
       d="m 590.86229,319.75763 -177.43108,0 c -21.1997,0 -38.38532,17.18561 -38.38532,38.38531 l 0,177.41053 c 0,21.1997 17.18562,38.38424 38.38532,38.38424 l 177.43,0 c 21.1997,0 38.38532,-17.18562 38.38532,-38.38424 l 0,-177.40945 c 0.001,-21.1997 -17.18562,-38.38639 -38.38424,-38.38639 z"
       style="fill:#000;fill-opacity:1"
       inkscape:connector-curvature="0" /><linearGradient
       id="path1950_1_"
       gradientUnits="userSpaceOnUse"
       x1="-808.8727"
       y1="199.8918"
       x2="-860.5692"
       y2="49.2029"
       gradientTransform="matrix(-0.5915 0 0 -0.5915 -34.5417 412.5453)"><stop
         offset="0"
         style="stop-color:#FFFFFF"
         id="stop7" /><stop
         offset="1"
         style="stop-color:#FFFFFF;stop-opacity:0"
         id="stop9" /></linearGradient></g><g
     id="layer1_1_"
     transform="translate(-200.55198,-393.96227)"
     inkscape:label="Layer 1"
     inkscape:groupmode="layer"><g
       id="g3019"
       transform="matrix(1.1020373,0,0,-1.1020373,158.20397,496.58326)"><path
         id="path28_1_"
         inkscape:connector-curvature="0"
         d="m 109.495,-101.774 0,104.307 -34.667,0 0,-104.307 34.667,0 z M 92.168,16.775 c 12.081,0 19.612,8.01 19.612,18.021 -0.224,10.233 -7.531,18.021 -19.385,18.021 -11.864,0 -19.615,-7.788 -19.615,-18.021 0,-10.011 7.521,-18.021 19.159,-18.021 l 0.229,0 0,0 z"
         style="fill:#ffffff" /><path
         id="path30_1_"
         inkscape:connector-curvature="0"
         d="m 128.681,-101.774 34.673,0 0,58.249 c 0,3.119 0.226,6.235 1.143,8.462 2.5,6.232 8.209,12.681 17.784,12.681 12.547,0 17.562,-9.568 17.562,-23.588 l 0,-55.804 34.666,0 0,59.81 c 0,32.039 -17.1,46.946 -39.913,46.946 -18.701,0 -26.915,-10.45 -31.476,-17.571 l 0.234,0 0,15.122 -34.673,0 c 0.46,-9.786 0,-104.307 0,-104.307 l 0,0 z"
         style="fill:#ffffff" /></g></g></svg>